<svg xmlns="http://www.w3.org/2000/svg" width="50" height="50" viewBox="0 0 24 24" fill="#2e51a2">
  <path d="M16.5 3h-9c-1.93 0-3.5 1.57-3.5 3.5v9c0 1.93 1.57 3.5 3.5 3.5h9c1.93 0 3.5-1.57 3.5-3.5v-9c0-1.93-1.57-3.5-3.5-3.5zm2.5 12.5c0 1.38-1.12 2.5-2.5 2.5h-9c-1.38 0-2.5-1.12-2.5-2.5v-9c0-1.38 1.12-2.5 2.5-2.5h9c1.38 0 2.5 1.12 2.5 2.5v9z"/>
  <circle cx="12" cy="12" r="3.5"/>
  <path d="M17.5 6.5h-1c-.28 0-.5-.22-.5-.5v-1c0-.28.22-.5.5-.5h1c.28 0 .5.22.5.5v1c0 .28-.22.5-.5.5zm-1 1h1c.28 0 .5.22.5.5v1c0 .28-.22.5-.5.5h-1c-.28 0-.5-.22-.5-.5v-1c0-.28.22-.5.5-.5zm3 1h-1c-.28 0-.5-.22-.5-.5v-1c0-.28.22-.5.5-.5h1c.28 0 .5.22.5.5v1c0 .28-.22.5-.5.5zm0 2h-1.5c-.28 0-.5-.22-.5-.5v-2c0-.28.22-.5.5-.5h1.5c.28 0 .5.22.5.5v2c0 .28-.22.5-.5.5zm-4-4h-1c-.28 0-.5-.22-.5-.5v-1c0-.28.22-.5.5-.5h1c.28 0 .5.22.5.5v1c0 .28-.22.5-.5.5zm-2 0h-1c-.28 0-.5-.22-.5-.5v-1c0-.28.22-.5.5-.5h1c.28 0 .5.22.5.5v1c0 .28-.22.5-.5.5zm-2 0h-1c-.28 0-.5-.22-.5-.5v-1c0-.28.22-.5.5-.5h1c.28 0 .5.22.5.5v1c0 .28-.22.5-.5.5zm0 2h-1.5c-.28 0-.5-.22-.5-.5v-2c0-.28.22-.5.5-.5h1.5c.28 0 .5.22.5.5v2c0 .28-.22.5-.5.5zm-1 3h1c.28 0 .5.22.5.5v1c0 .28-.22.5-.5.5h-1c-.28 0-.5-.22-.5-.5v-1c0-.28.22-.5.5-.5zm2 0h1c.28 0 .5.22.5.5v1c0 .28-.22.5-.5.5h-1c-.28 0-.5-.22-.5-.5v-1c0-.28.22-.5.5-.5z"/>
</svg>
