<svg xmlns="http://www.w3.org/2000/svg" viewBox="0 0 24 24" fill="#2e51a2" width="24" height="24">
  <path d="M22.46 5.22c-.81.36-1.68.6-2.6.71.94-.56 1.66-1.44 2-2.5-.88.52-1.86.9-2.9 1.1-.83-.88-2.01-1.43-3.32-1.43-2.51 0-4.54 2.03-4.54 4.54 0 .36.04.7.13 1.03-3.77-.19-7.12-2-9.37-4.76-.39.67-.62 1.45-.62 2.28 0 1.58.8 2.98 2.02 3.8-.74-.02-1.44-.23-2.05-.57v.06c0 2.21 1.57 4.07 3.66 4.49-.38.1-.77.16-1.18.16-.29 0-.58-.03-.86-.09.58 1.81 2.27 3.13 4.27 3.17-1.57 1.24-3.55 1.98-5.7 1.98-.37 0-.74-.02-1.11-.07 2.04 1.3 4.45 2.06 7.05 2.06 8.46 0 13.07-7 13.07-13v-.59c.89-.64 1.67-1.45 2.29-2.37z"/>
</svg>
